<?xml version="1.0" encoding="UTF-8"?>
<svg xmlns="http://www.w3.org/2000/svg" viewBox="0 0 1920 1080">
  <defs>
    <style>
      .cls-1 {
        fill: #e6e6ff;
        opacity: .56;
      }

      .cls-1, .cls-2, .cls-3, .cls-4 {
        stroke-width: 0px;
      }

      .cls-2 {
        fill: #f3eeff;
        opacity: .47;
      }

      .cls-5 {
        opacity: .28;
      }

      .cls-6 {
        opacity: .54;
        stroke-dasharray: 0 200;
      }

      .cls-6, .cls-7 {
        fill: none;
        stroke: #fffcf0;
        stroke-miterlimit: 10;
        stroke-width: 10px;
      }

      .cls-3 {
        fill: #e4e3fc;
        opacity: .87;
      }

      .cls-7 {
        stroke-dasharray: 0 0 189.05 189.05;
      }

      .cls-4 {
        fill: #fffcf0;
      }
    </style>
  </defs>
  <g id="project_detsign" data-name="project detsign">
    <g>
      <path class="cls-2" d="M-14.16-29.46v1138h1964.15V-29.46s-600.99-21.54-1964.15,0Z"/>
      <path class="cls-2" d="M-13.99,1138V0h1964.15v1138s-267.15-809.1-1964.15,0Z"/>
      <path class="cls-1" d="M-14,725V-23.59h1964.15v748.59s-267.15-532.23-1964.15,0Z"/>
      <path class="cls-3" d="M2041.87-23.59l-10.87,418.59S1457-10,650,254s-867,17-867,17L-132-24l2173.87.41Z"/>
      <g class="cls-5">
        <path class="cls-7" d="M8.28,1036.65C65.72,666.26,266.22,64.28,962.5,14.5c707.94-50.62,1048.91,348.27,1188.99,589.66"/>
      </g>
      <path class="cls-6" d="M-52,1594S1156,365,2155,777s225.31,145.42,225.31,145.42"/>
    </g>
    <path class="cls-4" d="M43.45,873.38s-29.18-59.9-.73-79.68c28.45-19.78.73,79.68.73,79.68Z"/>
    <path class="cls-4" d="M45.7,867.52s-13.42,36.97-33.49,33.02c-20.07-3.94,33.49-33.02,33.49-33.02Z"/>
    <path class="cls-4" d="M41.98,871.7s64.89-15.11,62.31-49.66c-2.58-34.55-62.31,49.66-62.31,49.66Z"/>
    <path class="cls-4" d="M45.11,866.26s-20.24,33.72-4.52,46.82c15.71,13.09,4.52-46.82,4.52-46.82Z"/>
    <path class="cls-4" d="M464.16,284.61s-1.15-49.79,24.35-54.36-24.35,54.36-24.35,54.36Z"/>
    <path class="cls-4" d="M467.51,281.34s-20.65,20.93-33.05,11.99,33.05-11.99,33.05-11.99Z"/>
    <path class="cls-4" d="M463.69,283.02s48.8,9.97,57.82-14.31c9.02-24.28-57.82,14.31-57.82,14.31Z"/>
    <path class="cls-4" d="M467.5,280.3s-24.26,16.6-17.67,30.4,17.67-30.4,17.67-30.4Z"/>
  </g>
  <g id="bigbut">
    <g>
      <path class="cls-4" d="M1306.22,1102.26s311.95-709.54,701.45-605.92c389.5,103.61-701.45,605.92-701.45,605.92Z"/>
      <path class="cls-4" d="M1375.09,1078.18s-428.99,159.04-544.97-48.69,544.97,48.69,544.97,48.69Z"/>
      <path class="cls-4" d="M1308.61,1075.95s635.83,443.26,914.38,151.96c278.55-291.3-914.38-151.96-914.38-151.96Z"/>
      <path class="cls-4" d="M1379.95,1060.63s-449.04,87.64-439.88,325.38c9.16,237.74,439.88-325.38,439.88-325.38Z"/>
    </g>
      <animateTransform
      attributeName="transform"
      atributeType="XML"
      type="translate"
      dur="10s"
      values="-5,5;5,-5;-5,5;"
      repeatCount="indefinite"/>
  </g>
  <g id="but2">
    <g>
      <path class="cls-4" d="M156.99,465.71s-43.91-156.93,33.22-192.02c77.13-35.1-33.22,192.02-33.22,192.02Z"/>
      <path class="cls-4" d="M164.97,452.61s-48.52,83.05-95.07,64.76c-46.55-18.3,95.07-64.76,95.07-64.76Z"/>
      <path class="cls-4" d="M154.2,461.03s162.76-7.87,171.72-92.14c8.96-84.26-171.72,92.14-171.72,92.14Z"/>
      <path class="cls-4" d="M164.11,449.32s-63.49,72.26-31.43,110.65c32.06,38.4,31.43-110.65,31.43-110.65Z"/>
    </g>

      <animateTransform
      attributeName="transform"
      atributeType="XML"
      type="translate"
      dur="15s"
      values="-10,5;10,-5;-10,5;"
      repeatCount="indefinite"/>
  </g>
  <g id="but1">
    <g>
      <path class="cls-4" d="M546.15,85.93s29.08-79.55,72.28-70.96c43.2,8.59-72.28,70.96-72.28,70.96Z"/>
      <path class="cls-4" d="M553.5,82.82s-45.68,20.33-59.77-1.52c-14.09-21.85,59.77,1.52,59.77,1.52Z"/>
      <path class="cls-4" d="M546.4,83.11s71.08,46.06,100.43,13.21c29.34-32.84-100.43-13.21-100.43-13.21Z"/>
      <path class="cls-4" d="M554.13,81.17s-48.72,11.23-46.84,37.16c1.88,25.93,46.84-37.16,46.84-37.16Z"/>
    </g>

      <animateTransform
      attributeName="transform"
      atributeType="XML"
      type="translate"
      dur="10s"
      values="-5,5;5,-5;-5,5;"
      repeatCount="indefinite"/>
  </g>
</svg>