<?xml version="1.0" encoding="UTF-8"?>
<svg xmlns="http://www.w3.org/2000/svg" viewBox="0 0 1920 1080">
  <defs>
    <style>
      .cls-1, .cls-2 {
        fill: none;
        stroke: #f0f8ff;
        stroke-width: 20px;
      }

      .cls-1, .cls-2, .cls-3, .cls-4 {
        stroke-miterlimit: 10;
      }

      .cls-2 {
        stroke-dasharray: 0 0 187.86 187.86;
      }

      .cls-5 {
        fill: #f0f8ff;
        stroke-width: 0px;
      }

      .cls-3 {
        opacity: .64;
      }

      .cls-3, .cls-4 {
        fill: #fcf6db;
        stroke: #fff;
        stroke-width: 16px;
      }

      .cls-6 {
        opacity: .32;
      }

      .cls-4 {
        opacity: .29;
      }
    </style>
  </defs>
  <g id="Layer_46" data-name="Layer 46">
    <g>
      <path class="cls-4" d="M-63-95s438.64,233.66,935,41c597.88-232.06,1059.93-65.14,1059.93-65.14l94.07,1439.14L-101,1143-63-95Z"/>
      <path class="cls-4" d="M2080.6-389.27s-303.27,1005.81-1183,1032C-9.4,669.73-101,1052.15-101,1052.15v280.76l2091.6-128.21,90-1593.97Z"/>
      <path class="cls-4" d="M12,33s723,520.97,1237,218c514-302.97,933.57,65.46,933.57,65.46l49.43,826.54-2280-15L12,33Z"/>
      <path class="cls-4" d="M-170-425S133.27,580.81,1013,607c907,27,998.6,409.42,998.6,409.42v280.76L-80,1168.97-170-425Z"/>
      <path class="cls-3" d="M-100.93,593.66s735,399.39,1249,239.64c514-159.76,921.57-90.17,921.57-90.17l60.43,384.87L-1.93,1108.03l-99-514.37Z"/>
    </g>
    <path class="cls-5" d="M1742.83,494.66s-7.11-98.68-56.39-92.37c-49.28,6.31,56.39,92.37,56.39,92.37Z"/>
    <path class="cls-5" d="M1732.02,499.52s-68.25-87.68-100.64-65.47c-32.39,22.21,100.64,65.47,100.64,65.47Z"/>
    <path class="cls-5" d="M1779.12,467.78s-132.23,116.41-127.84,119.65c4.4,3.24,139.96-104.57,139.96-110.82s-12.13-8.83-12.13-8.83Z"/>
    <path class="cls-5" d="M1770.22,507.49s94.45-12.74,114.14,13.34c19.68,26.08-114.14-13.34-114.14-13.34Z"/>
    <path class="cls-5" d="M1766.05,512.53s77.92,30.63,78.66,63.54c.74,32.91-78.66-63.54-78.66-63.54Z"/>
    <path class="cls-5" d="M146.12,850.12s-619.29,545.18-598.7,560.35c20.59,15.17,655.5-489.73,655.5-518.98s-56.8-41.37-56.8-41.37Z"/>
    <path id="wingalone" class="cls-5" d="M104.42,1036.08s442.36-59.66,534.54,62.48c92.18,122.14-534.54-62.48-534.54-62.48Z"/>
    <path class="cls-5" d="M58.81,1067.01s388.97,49.52,430.14,198.1c41.17,148.57-430.14-198.1-430.14-198.1Z"/>
    <g class="cls-6">
      <g>
        <path class="cls-1" d="M-98,1033s36.48,4.3,99.63,8.49"/>
        <path class="cls-2" d="M189.31,1048.97c526.3,7.78,1602.19-84.15,1720.44-952.23"/>
        <path class="cls-1" d="M1918.55,3.25c1.74-32.33,2.25-65.64,1.45-99.97"/>
      </g>
    </g>
  </g>
  <g id="Bigwing">
    <g>
      <path class="cls-5" d="M1735.9,907.32s-619.29,545.18-598.7,560.35c20.59,15.17,655.5-489.73,655.5-518.98s-56.8-41.37-56.8-41.37Z"/>
      <path class="cls-5" d="M1694.2,1093.27s442.36-59.66,534.54,62.48c92.18,122.14-534.54-62.48-534.54-62.48Z"/>
      <path class="cls-5" d="M1565.97,1033.19s-33.3-462.15-264.08-432.6,264.08,432.6,264.08,432.6Z"/>
      <path class="cls-5" d="M1515.33,1055.95s-319.62-410.63-471.31-306.62c-151.69,104.01,471.31,306.62,471.31,306.62Z"/>
    </g>

      <animateTransform
      attributeName="transform"
      atributeType="XML"
      type="translate"
      dur="7s"
      values="5,-5;-5,5;5,-5;"
      repeatCount="indefinite"/>
  </g>
  <g id="body">
    <path class="cls-5" d="M364.69,181.19S82.89,429.25,92.26,436.16c9.37,6.9,298.27-222.84,298.27-236.15s-25.84-18.82-25.84-18.82Z"/>
    <path class="cls-5" d="M925.82,16.75s-190.45,38.79-188.02,44.3,191.35-23.21,194.78-29.19c3.43-5.98-6.76-15.11-6.76-15.11Z"/>

      <animateTransform
      attributeName="transform"
      atributeType="XML"
      type="translate"
      dur="10s"
      values="7,-10;-7,10;7,-10;"
      repeatCount="indefinite"/>
  </g>
  <g id="wing">
    <g>
      <path class="cls-5" d="M287.36,238.46s-15.15-210.29-120.16-196.84c-105.01,13.45,120.16,196.84,120.16,196.84Z"/>
      <path class="cls-5" d="M264.32,248.82S118.88,61.97,49.86,109.3s214.46,139.52,214.46,139.52Z"/>
      <path class="cls-5" d="M345.71,265.8s201.28-27.15,243.23,28.43c41.94,55.58-243.23-28.43-243.23-28.43Z"/>
      <path class="cls-5" d="M324.96,279.87s176.99,22.53,195.72,90.14c18.73,67.6-195.72-90.14-195.72-90.14Z"/>
    </g>
    <g>
      <path class="cls-5" d="M876.34,22.55s47.38-98.33-3.24-119.35,3.24,119.35,3.24,119.35Z"/>
      <path class="cls-5" d="M863.33,21.26s-17.16-121.38-60.35-117.91,60.35,117.91,60.35,117.91Z"/>
      <path class="cls-5" d="M895.5,49.86s97.38,39.67,101.9,75.44c4.51,35.76-101.9-75.44-101.9-75.44Z"/>
      <path class="cls-5" d="M886.37,50.27s37.33,84.49,12.37,110.87c-24.96,26.38-12.37-110.87-12.37-110.87Z"/>
    </g>
    
      <animateTransform
      attributeName="transform"
      atributeType="XML"
      type="translate"
      dur="7s"
      values="-7,10;7,-10;-7,10;"
      repeatCount="indefinite"/>
  </g>
</svg>