<?xml version="1.0" encoding="UTF-8"?>
<svg id="Layer_41" data-name="Layer 41" xmlns="http://www.w3.org/2000/svg" viewBox="0 0 1920 1080">
  <defs>
    <style>
      .cls-1 {
        stroke-width: 100px;
      }

      .cls-1, .cls-2 {
        fill: none;
        stroke: #ffb8b8;
        stroke-miterlimit: 10;
      }

      .cls-2 {
        stroke-width: 10px;
      }
    </style>
  </defs>
  <path class="cls-2" d="M-248.63-107.68S-109.83-125.8-77.56,7.25s-57,106.09-77.12-109.63-165.12-233.84-215.51-171.51C-420.58-211.56-34.24-173.55,86-60.82"/>
  <path class="cls-2" d="M-83.25-107.89S-222.05-126.02-254.32,7.04s57,106.09,77.12-109.63c20.13-215.72,165.12-233.84,215.51-171.51,50.39,62.33-335.95,100.34-456.19,213.07"/>
  <path class="cls-1" d="M612.69,463.5C1068.25,202.88,907.86-80.98,844.39,126.73s159.24,946.21-167.32,895.44c-326.56-50.77,567.03-588.3,567.03-588.3l-237.01,382.9,327.71-236.55"/>
</svg>