<?xml version="1.0" encoding="UTF-8"?>
<svg xmlns="http://www.w3.org/2000/svg" xmlns:xlink="http://www.w3.org/1999/xlink" viewBox="0 0 1920 1080">
  <defs>
    <style>
      .cls-1 {
        fill: url(#linear-gradient);
      }

      .cls-1, .cls-2, .cls-3, .cls-4, .cls-5, .cls-6, .cls-7, .cls-8, .cls-9, .cls-10, .cls-11 {
        stroke-width: 0px;
      }

      .cls-2 {
        fill: #fff1dc;
      }

      .cls-3 {
        fill: #0d6044;
      }

      .cls-4 {
        opacity: .28;
      }

      .cls-4, .cls-5, .cls-9 {
        fill: #ff6868;
      }

      .cls-5 {
        opacity: .61;
      }

      .cls-6 {
        fill: #1cad7d;
      }

      .cls-7 {
        fill: #40c199;
      }

      .cls-8 {
        fill: url(#linear-gradient-2);
      }

      .cls-10 {
        fill: #37af87;
      }

      .cls-11 {
        fill: #31a36d;
      }
    </style>
    <linearGradient id="linear-gradient" x1="948" y1="1116" x2="948" y2="-169" gradientUnits="userSpaceOnUse">
      <stop offset=".01" stop-color="#fff" stop-opacity="0"/>
      <stop offset=".26" stop-color="#fff" stop-opacity=".5"/>
      <stop offset="1" stop-color="#96a5e2"/>
    </linearGradient>
    <linearGradient id="linear-gradient-2" x1="948" y1="498" x2="948" y2="-169" gradientUnits="userSpaceOnUse">
      <stop offset="0" stop-color="#fff" stop-opacity=".5"/>
      <stop offset="1" stop-color="#96a5e2"/>
    </linearGradient>
  </defs>
  <g id="sea">
    <path class="cls-5" d="M-110.39,1184.93c-47.72-128.89-226.69-356.89,340.57-285.89s564.01,25,847.09-33c283.09-58,244.04-5.36,541.77,42.32s410.67,28.84,545.09,31.76,242.89,128.92,256.99,139.92-119.31,231-119.31,231L-110.39,1184.93Z"/>
    <path class="cls-9" d="M-146,1267.89c-44-128.89-209-356.89,314-285.89s520,25,781-33,225-5.36,499.5,42.32,378.63,28.84,502.56,31.76,223.94,128.92,236.94,139.92-110,231-110,231l-2224-126.11Z"/>
    <path class="cls-4" d="M-363.85,1143.52c-47.72-128.89-226.69-356.89,340.57-285.89s564.01,25,847.09-33,244.04-5.36,541.77,42.32,410.67,28.84,545.09,31.76,242.89,128.92,256.99,139.92-119.31,231-119.31,231l-2412.21-126.11Z"/>
  </g>
  <g id="social">
    <path class="cls-1" d="M-93,1116s977-929.72,2135,0V-169H-146l53,1285Z"/>
    <path class="cls-8" d="M-93,498s977-482.59,2135,0V-169H-146l53,667Z"/>
    <path class="cls-3" d="M528.42,916.44s188.58,148.8,122.58,266.49-88.76-228.09-164.38-266.49"/>
    <path class="cls-3" d="M1348,944s-158.13,62.05-92.13,189.05,35.51-122.62,111.13-164.05"/>
    <path class="cls-11" d="M1319.1,931.16c-31.48,56.81,176.9-495.16,549.9-400.16s-399.8,129.33-549.9,400.16Z"/>
    <path class="cls-11" d="M511.42,922.04s15.81-269.4-225.83-312.93c-241.65-43.54-345.86,24.83-246.66,54.69,191.98,57.8,478.77,232.64,472.49,258.24Z"/>
    <path class="cls-11" d="M1318.61,927.94c-31.48,56.81,176.9-495.16,549.9-400.16s-399.8,129.33-549.9,400.16Z"/>
    <path class="cls-6" d="M67.75,668.01c8.1-7.03,15.98-14.21,24.51-20.74,30.55-23.35,65.84-39.68,103-49.98-174.76-13.47-240.54,40.93-154.97,66.69,7.69,2.32,15.54,4.84,23.51,7.51,1.3-1.18,2.62-2.34,3.94-3.48Z"/>
    <path class="cls-6" d="M233.1,601.1c-31,5.54-61.29,15.26-89.67,28.86-17.03,8.16-33.26,18.19-48.03,29.98-6.4,5.11-12.46,10.61-18.59,16.04,45.61,16.07,94.82,37.23,143.2,60.48-.06-.14-.12-.28-.18-.42-4.92-18.3-4.92-36.59,0-54.89,3.47-8.22,6.94-16.44,10.41-24.66,6.49-12.03,15.35-21.69,26.59-28.97,9.3-8.51,20.1-14.44,32.41-17.79-.76-.14-1.51-.29-2.28-.43-18.79-3.39-36.75-6.09-53.85-8.2Z"/>
    <path class="cls-6" d="M1611.26,574.03c18.16-4.25,37.1-6.72,55.77-6.99,15.39-.22,30.31,1.81,45.57,4,15.45,2.21,28.63,7.5,42.98,13.99,18.74,8.49,33.58,23.81,44.8,40.71,5.77,8.69,9.51,18.5,11.97,28.67,35.43-11.68,67.12-22.35,92.64-32.42-11.69-19.96-28.56-37.18-46.48-51.28-20.93-16.47-44.71-28.33-70.3-35.57-25.02-7.08-51.2-10.82-77.25-10.61-49.86,11.28-95.47,33.55-136.57,62.11,11.97-5.15,24.21-9.66,36.88-12.62Z"/>
    <path class="cls-6" d="M1875.03,541.71c9.93,9.4,19.11,20.58,25.33,32.55,3.49,6.71,5.97,13.8,6.83,21.32.08.66.12,1.33.17,1.99,27.68-18.6,23.27-36.15-32.33-55.87Z"/>
    <path class="cls-6" d="M1940.83,594.67c-1.6-8.04-5.53-15.37-10.1-22.09-11.69-17.18-27.17-30.54-44.79-40.73-5.26-1.45-10.79-2.92-16.6-4.4-36.97-9.42-72.32-12.47-105.98-10.4,13.43,2.4,26.68,5.76,39.49,10.08,28.07,9.46,53.55,24.9,75.52,44.72,14.42,13.01,27.96,28.38,37.85,45.59,9.65-4.05,18.19-8.02,25.48-11.92.04-3.65-.15-7.28-.86-10.84Z"/>
  </g>
  <g id="l2">
    <path class="cls-11" d="M487,885.46c-388-203.87-584.43-70.43-595.71,0-11.29,70.43,369.71-77.56,595.71,42.77s0-42.77,0-42.77Z"/>
    <path class="cls-7" d="M-75.61,886.79c25.06-.04,50.1.18,75.14,1.25,18.86.81,37.69,1.95,56.51,3.27,26.66-3.16,57.2-6.41,89.02-9.08-12.11-2.42-24.27-4.64-36.5-6.52-31.05-4.78-62.25-6.68-93.69-7.33-29.03-.61-58.08-.36-87.12-.3-5.74,7.83-7.5,13.95-6.72,18.73,1.12,0,2.24,0,3.35-.01Z"/>
    <path class="cls-7" d="M-74.67,894.46c10.96,10.11,38.28,9.34,38.28,9.34,0,0,19.56-3.11,50.58-7.23-29.59-1.39-59.18-2.12-88.87-2.11Z"/>
    <path class="cls-6" d="M118.16,869.52c18.14,2.98,36.11,6.62,53.99,10.61,38.1-2.69,76.94-4.31,112.28-3.75-130.08-21.52-320.83-46.98-349.43-16.87-.3.31-.57.62-.86.92,61.57-.12,123.14-.92,184.01,9.08Z"/>
    <g>
      <path class="cls-11" d="M1317,941c-15.41,9.29,98-247,568-170s-364,47-568,170Z"/>
      <path class="cls-6" d="M1894.61,797.71c6.64-6.31,13.08-13.86,18.07-22.17-8.82-1.54-18.19-3.12-28.17-4.76-22.17-3.63-43.53-6.52-64.13-8.73-2.94-.32-5.87-.62-8.78-.91-31.6,24.85-65.6,45.85-103.29,60.34-2.73,1.28-5.48,2.49-8.25,3.68-32.35,13.85-64.69,28.22-97.4,41.29,71.69-9.97,145.69-17.51,211.37-24.04,29.77-9.36,57.84-23.09,80.58-44.72Z"/>
      <path class="cls-7" d="M1921.26,777.05c-4.66,8.46-10.71,16.24-17.2,22.9-16.59,17.03-37.23,29.76-58.96,39.38,170.48-16.96,266.92-28.17,76.16-62.29Z"/>
    </g>

      <animateTransform
      attributeName="transform"
      atributeType="XML"
      type="translate"
      dur="5s"
      values="6,4;-6,-4;6,4;"
      repeatCount="indefinite"/>

  </g>
  <g id="l1">
    <g>
      <path class="cls-11" d="M1126.49,911.97c-40.36-82.73,295.51-76.97,396.51,55.03s-277.02,189.93-396.51-55.03Z"/>
      <path class="cls-10" d="M1257.74,1044.71c26.7,1.64,53.49,1.76,80.17-.19,30.69-2.24,61.57-6.52,90.43-17.6,35.13-13.48,66.5-34.99,94.3-60.36-7.02-9.15-15.16-17.69-24.23-25.64-1.8.62-3.61,1.23-5.43,1.82-50.67,26.62-105.27,38.82-163.8,36.62-67.63-.21-131.2-15.27-190.72-45.16,30.59,51.07,73.19,87.02,119.28,110.51Z"/>
      <path class="cls-7" d="M1496.78,998.26c-23,16.8-48.23,30.74-75.27,39.87-30.16,10.18-62.74,13.65-94.38,15.31-16.61.87-33.21.97-49.79.43,50.85,21.72,104.39,29.23,149.75,25.89,12.85-6.32,25.19-13.67,36.84-21.93,27.91-19.79,51.93-45.24,69.18-74.68-1.59-3.24-3.48-6.54-5.68-9.89-9.78,8.84-19.98,17.21-30.64,25.01Z"/>
      <path class="cls-7" d="M1519.82,1016.79c-19.55,24.15-43.69,44.55-70.53,60.38,61.27-10.01,101.53-41.59,87.71-84.5-5.21,8.37-10.95,16.43-17.18,24.13Z"/>
    </g>
    <g>
      <path class="cls-11" d="M660,964.23s-380-147.34-401,18.53,461,50.04,401-18.53Z"/>
      <path class="cls-10" d="M511.5,1010.86c40.94-3.42,81.29-11.72,120.27-23.74,11.05-3.41,22.05-7.05,32.9-11.04-.23-3.96-1.88-7.82-5.14-11.55,0,0-24.43-9.47-61.23-20.91-46,28.76-95.65,51.74-148.94,68.94,20.67.47,41.38.03,62.14-1.71Z"/>
      <path class="cls-7" d="M618.34,999.08c-39.2,10.98-79.69,18.01-120.57,20.39-21.05,1.23-42.12,1.21-63.15.32l-13.55,1.25c-4.04,1.13-8.09,2.23-12.17,3.29l-128.67,16.02c44.8,36.44,148.89,32.94,237.49,13.05l16.85-4.02c64.78-16.43,118.11-41.25,128.36-64.49-14.66,5.27-29.57,9.98-44.58,14.18Z"/>
    </g>

      <animateTransform
      attributeName="transform"
      atributeType="XML"
      type="translate"
      dur="5s"
      values="0,-4;0,4;0,-4;"
      repeatCount="indefinite"/>

  </g>
  <g id="light">
    <polygon class="cls-2" points="143.3 -169 683 217 143.3 -146.5 143.3 -169"/>
    <polygon class="cls-2" points="87 -277.86 626.7 108.14 87 -255.36 87 -277.86"/>
    <polygon class="cls-2" points="536 0 783.68 177.14 536 10.33 536 0"/>
  </g>
  <g id="s">
    <polygon class="cls-2" points="803.43 215.8 805.03 198.91 793.25 186.71 810.14 188.3 822.34 176.53 820.74 193.41 832.52 205.62 815.64 204.02 803.43 215.8"/>
  
  <animateTransform
    attributeName="transform"
    atributeType="XML"
    type="rotate"
    dur="4s"
    from="0 812.5 196.5"
    to="90 812.5 196.5"
    repeatCount="indefinite"/>

  </g>
  <g id="s-2" data-name="s">
    <polygon class="cls-2" points="641.13 136.72 638.47 125.13 627.94 119.61 639.53 116.94 645.05 106.41 647.72 118 658.25 123.53 646.66 126.19 641.13 136.72"/>
  
    <animateTransform
    attributeName="transform"
    atributeType="XML"
    type="rotate"
    dur="4s"
    from="0 643.5 121.5"
    to="90 643.5 121.5"
    repeatCount="indefinite"/>

  </g>
  <g id="s-3" data-name="s">
    <polygon class="cls-2" points="690.87 241.48 687.97 228.88 676.52 222.87 689.12 219.97 695.13 208.52 698.03 221.12 709.48 227.13 696.88 230.03 690.87 241.48"/>
  
    <animateTransform
    attributeName="transform"
    atributeType="XML"
    type="rotate"
    dur="4s"
    from="0 693 225"
    to="90 693 225"
    repeatCount="indefinite"/>
  
  </g>
</svg>