<?xml version="1.0" encoding="UTF-8"?>
<svg id="project_detsign" data-name="project detsign" xmlns="http://www.w3.org/2000/svg" xmlns:xlink="http://www.w3.org/1999/xlink" viewBox="0 0 1920 1080">
  <defs>
    <style>
      .cls-1, .cls-2 {
        stroke: #f0f8ff;
        stroke-width: 20px;
      }

      .cls-1, .cls-2, .cls-3, .cls-4, .cls-5, .cls-6 {
        stroke-miterlimit: 10;
      }

      .cls-1, .cls-2, .cls-3, .cls-5 {
        fill: none;
      }

      .cls-7 {
        fill: url(#linear-gradient);
      }

      .cls-7, .cls-8, .cls-9, .cls-10, .cls-11, .cls-12, .cls-13 {
        stroke-width: 0px;
      }

      .cls-2 {
        stroke-dasharray: 0 0 187.86 187.86;
      }

      .cls-8 {
        fill: #e6e6ff;
        opacity: .56;
      }

      .cls-9 {
        fill: #f3eeff;
        opacity: .47;
      }

      .cls-14 {
        opacity: .28;
      }

      .cls-3 {
        opacity: .54;
        stroke-dasharray: 0 200;
      }

      .cls-3, .cls-5 {
        stroke: #fffcf0;
        stroke-width: 10px;
      }

      .cls-10 {
        fill: #f0f8ff;
      }

      .cls-4 {
        opacity: .29;
      }

      .cls-4, .cls-6 {
        fill: #f9e4e4;
        stroke: #fff;
        stroke-width: 16px;
      }

      .cls-15 {
        opacity: .32;
      }

      .cls-11 {
        fill: #e4e3fc;
        opacity: .87;
      }

      .cls-5 {
        stroke-dasharray: 0 0 189.05 189.05;
      }

      .cls-12 {
        fill: #fff;
        opacity: .43;
      }

      .cls-6 {
        opacity: .64;
      }

      .cls-13 {
        fill: #fffcf0;
      }
    </style>
    <linearGradient id="linear-gradient" x1="959" y1="1124" x2="959" y2="-39" gradientUnits="userSpaceOnUse">
      <stop offset="0" stop-color="#acc0ff" stop-opacity=".6"/>
      <stop offset="1" stop-color="#fff" stop-opacity=".2"/>
    </linearGradient>
  </defs>
  <g id="butter">
    <g>
      <path class="cls-9" d="M-14.16-29.46v1138h1964.15V-29.46s-600.99-21.54-1964.15,0Z"/>
      <path class="cls-9" d="M-13.99,1138V0h1964.15v1138s-267.15-809.1-1964.15,0Z"/>
      <path class="cls-8" d="M-14,725V-23.59h1964.15v748.59s-267.15-532.23-1964.15,0Z"/>
      <path class="cls-11" d="M2041.87-23.59l-10.87,418.59S1457-10,650,254s-867,17-867,17L-132-24l2173.87.41Z"/>
      <g class="cls-14">
        <path class="cls-5" d="M8.28,1036.65C65.72,666.26,266.22,64.28,962.5,14.5c707.94-50.62,1048.91,348.27,1188.99,589.66"/>
      </g>
      <path class="cls-3" d="M-52,1594S1156,365,2155,777s225.31,145.42,225.31,145.42"/>
    </g>
    <g>
      <path class="cls-13" d="M156.99,465.71s-43.91-156.93,33.22-192.02c77.13-35.1-33.22,192.02-33.22,192.02Z"/>
      <path class="cls-13" d="M164.97,452.61s-48.52,83.05-95.07,64.76c-46.55-18.3,95.07-64.76,95.07-64.76Z"/>
      <path class="cls-13" d="M154.2,461.03s162.76-7.87,171.72-92.14c8.96-84.26-171.72,92.14-171.72,92.14Z"/>
      <path class="cls-13" d="M164.11,449.32s-63.49,72.26-31.43,110.65c32.06,38.4,31.43-110.65,31.43-110.65Z"/>
    </g>
    <g>
      <path class="cls-13" d="M546.15,85.93s29.08-79.55,72.28-70.96c43.2,8.59-72.28,70.96-72.28,70.96Z"/>
      <path class="cls-13" d="M553.5,82.82s-45.68,20.33-59.77-1.52c-14.09-21.85,59.77,1.52,59.77,1.52Z"/>
      <path class="cls-13" d="M546.4,83.11s71.08,46.06,100.43,13.21c29.34-32.84-100.43-13.21-100.43-13.21Z"/>
      <path class="cls-13" d="M554.13,81.17s-48.72,11.23-46.84,37.16c1.88,25.93,46.84-37.16,46.84-37.16Z"/>
    </g>
    <path class="cls-13" d="M43.45,873.38s-29.18-59.9-.73-79.68c28.45-19.78.73,79.68.73,79.68Z"/>
    <path class="cls-13" d="M45.7,867.52s-13.42,36.97-33.49,33.02c-20.07-3.94,33.49-33.02,33.49-33.02Z"/>
    <path class="cls-13" d="M41.98,871.7s64.89-15.11,62.31-49.66c-2.58-34.55-62.31,49.66-62.31,49.66Z"/>
    <path class="cls-13" d="M45.11,866.26s-20.24,33.72-4.52,46.82c15.71,13.09,4.52-46.82,4.52-46.82Z"/>
    <path class="cls-13" d="M464.16,284.61s-1.15-49.79,24.35-54.36c25.49-4.57-24.35,54.36-24.35,54.36Z"/>
    <path class="cls-13" d="M467.51,281.34s-20.65,20.93-33.05,11.99c-12.4-8.94,33.05-11.99,33.05-11.99Z"/>
    <path class="cls-13" d="M463.69,283.02s48.8,9.97,57.82-14.31c9.02-24.28-57.82,14.31-57.82,14.31Z"/>
    <path class="cls-13" d="M467.5,280.3s-24.26,16.6-17.67,30.4,17.67-30.4,17.67-30.4Z"/>
    <g>
      <path class="cls-13" d="M1306.22,1102.26s311.95-709.54,701.45-605.92c389.5,103.61-701.45,605.92-701.45,605.92Z"/>
      <path class="cls-13" d="M1375.09,1078.18s-428.99,159.04-544.97-48.69,544.97,48.69,544.97,48.69Z"/>
      <path class="cls-13" d="M1308.61,1075.95s635.83,443.26,914.38,151.96c278.55-291.3-914.38-151.96-914.38-151.96Z"/>
      <path class="cls-13" d="M1379.95,1060.63s-449.04,87.64-439.88,325.38c9.16,237.74,439.88-325.38,439.88-325.38Z"/>
    </g>
  </g>
  <g id="dgfly">
    <path class="cls-4" d="M-63-95s438.64,233.66,935,41c597.88-232.06,1059.93-65.14,1059.93-65.14l94.07,1439.14L-101,1143-63-95Z"/>
    <path class="cls-4" d="M2080.6-389.27s-303.27,1005.81-1183,1032C-9.4,669.73-101,1052.15-101,1052.15v280.76l2091.6-128.21,90-1593.97Z"/>
    <path class="cls-4" d="M12,33s723,520.97,1237,218c514-302.97,933.57,65.46,933.57,65.46l49.43,826.54-2280-15L12,33Z"/>
    <path class="cls-4" d="M-170-425S133.27,580.81,1013,607c907,27,998.6,409.42,998.6,409.42v280.76L-80,1168.97-170-425Z"/>
    <path class="cls-6" d="M-100.93,593.66s735,399.39,1249,239.64c514-159.76,921.57-90.17,921.57-90.17l60.43,384.87L-1.93,1108.03l-99-514.37Z"/>
    <g class="cls-15">
      <g>
        <path class="cls-1" d="M-98,1033s36.48,4.3,99.63,8.49"/>
        <path class="cls-2" d="M189.31,1048.97c526.3,7.78,1602.19-84.15,1720.44-952.23"/>
        <path class="cls-1" d="M1918.55,3.25c1.74-32.33,2.25-65.64,1.45-99.97"/>
      </g>
    </g>
    <g id="others">
      <path class="cls-10" d="M146.12,850.12s-619.29,545.18-598.7,560.35c20.59,15.17,655.5-489.73,655.5-518.98s-56.8-41.37-56.8-41.37Z"/>
      <path id="wingalone" class="cls-10" d="M104.42,1036.08s442.36-59.66,534.54,62.48c92.18,122.14-534.54-62.48-534.54-62.48Z"/>
      <path class="cls-10" d="M58.81,1067.01s388.97,49.52,430.14,198.1c41.17,148.57-430.14-198.1-430.14-198.1Z"/>
      <g>
        <path class="cls-10" d="M1742.83,494.66s-7.11-98.68-56.39-92.37c-49.28,6.31,56.39,92.37,56.39,92.37Z"/>
        <path class="cls-10" d="M1732.02,499.52s-68.25-87.68-100.64-65.47c-32.39,22.21,100.64,65.47,100.64,65.47Z"/>
        <path class="cls-10" d="M1779.12,467.78s-132.23,116.41-127.84,119.65c4.4,3.24,139.96-104.57,139.96-110.82s-12.13-8.83-12.13-8.83Z"/>
        <path class="cls-10" d="M1770.22,507.49s94.45-12.74,114.14,13.34-114.14-13.34-114.14-13.34Z"/>
        <path class="cls-10" d="M1766.05,512.53s77.92,30.63,78.66,63.54c.74,32.91-78.66-63.54-78.66-63.54Z"/>
      </g>
    </g>
    <g id="body">
      <g>
        <path class="cls-10" d="M364.69,181.19S82.89,429.25,92.26,436.16c9.37,6.9,298.27-222.84,298.27-236.15s-25.84-18.82-25.84-18.82Z"/>
        <path class="cls-10" d="M925.82,16.75s-190.45,38.79-188.02,44.3c2.43,5.51,191.35-23.21,194.78-29.19,3.43-5.98-6.76-15.11-6.76-15.11Z"/>
        <path class="cls-10" d="M1735.9,907.32s-619.29,545.18-598.7,560.35c20.59,15.17,655.5-489.73,655.5-518.98s-56.8-41.37-56.8-41.37Z"/>
      </g>
    </g>
    <g id="wing-2" data-name="wing">
      <g>
        <path class="cls-10" d="M1694.2,1093.27s442.36-59.66,534.54,62.48-534.54-62.48-534.54-62.48Z"/>
        <path class="cls-10" d="M1565.97,1033.19s-33.3-462.15-264.08-432.6c-230.78,29.55,264.08,432.6,264.08,432.6Z"/>
        <path class="cls-10" d="M1515.33,1055.95s-319.62-410.63-471.31-306.62c-151.69,104.01,471.31,306.62,471.31,306.62Z"/>
        <g>
          <path class="cls-10" d="M287.36,238.46s-15.15-210.29-120.16-196.84c-105.01,13.45,120.16,196.84,120.16,196.84Z"/>
          <path class="cls-10" d="M264.32,248.82S118.88,61.97,49.86,109.3s214.46,139.52,214.46,139.52Z"/>
          <path class="cls-10" d="M345.71,265.8s201.28-27.15,243.23,28.43c41.94,55.58-243.23-28.43-243.23-28.43Z"/>
          <path class="cls-10" d="M324.96,279.87s176.99,22.53,195.72,90.14c18.73,67.6-195.72-90.14-195.72-90.14Z"/>
        </g>
        <g>
          <path class="cls-10" d="M876.34,22.55s47.38-98.33-3.24-119.35,3.24,119.35,3.24,119.35Z"/>
          <path class="cls-10" d="M863.33,21.26s-17.16-121.38-60.35-117.91,60.35,117.91,60.35,117.91Z"/>
          <path class="cls-10" d="M895.5,49.86s97.38,39.67,101.9,75.44c4.51,35.76-101.9-75.44-101.9-75.44Z"/>
          <path class="cls-10" d="M886.37,50.27s37.33,84.49,12.37,110.87c-24.96,26.38-12.37-110.87-12.37-110.87Z"/>
        </g>
      </g>
    </g>
  </g>
  <g id="Layer_65" data-name="Layer 65">
    <rect class="cls-12" x="-45" y="-34" width="2014" height="1163"/>
    <rect class="cls-7" x="-48" y="-39" width="2014" height="1163"/>
  </g>
</svg>