<?xml version="1.0" encoding="UTF-8"?>
<svg xmlns="http://www.w3.org/2000/svg" viewBox="0 0 1920 1080">
  <defs>
    <style>
      .cls-1 {
        fill: #55ad5b;
      }

      .cls-1, .cls-2, .cls-3, .cls-4, .cls-5, .cls-6, .cls-7, .cls-8, .cls-9, .cls-10, .cls-11, .cls-12, .cls-13, .cls-14, .cls-15 {
        stroke: #fff;
        stroke-miterlimit: 10;
        stroke-width: 2px;
      }

      .cls-2 {
        fill: #ffc7c7;
      }

      .cls-3 {
        fill: #339e35;
      }

      .cls-4 {
        fill: #408e5a;
      }

      .cls-5 {
        opacity: .88;
      }

      .cls-5, .cls-6, .cls-11 {
        fill: #f27c7c;
      }

      .cls-6 {
        opacity: .58;
      }

      .cls-7 {
        fill: #ffc999;
      }

      .cls-8 {
        fill: #4faf4f;
      }

      .cls-9 {
        fill: #e87777;
      }

      .cls-10 {
        fill: #e26060;
      }

      .cls-12 {
        fill: #ff8d8d;
      }

      .cls-13 {
        fill: #76c176;
      }

      .cls-14 {
        fill: #f97575;
      }

      .cls-15 {
        fill: #f49595;
      }

      .cls-16 {
        fill: #ffe1e1;
        stroke-width: 0px;
      }
    </style>
  </defs>
  <g id="butterfly">
    <path class="cls-16" d="M182.77,818.42s-115.74-88.63-114.26-32.52,114.26,32.52,114.26,32.52Z"/>
    <path class="cls-16" d="M309.89,786.26c-1.49,56.1-114.26,32.52-114.26,32.52,0,0,115.74-88.63,114.26-32.52"/>
    <path class="cls-16" d="M127.84,935.23c-41.7-37.56,49.46-108.01,49.46-108.01,0,0-7.75,145.57-49.46,108.01"/>
    <path class="cls-16" d="M248.69,934.49c41.7-37.56-49.46-108.01-49.46-108.01,0,0,7.75,145.57,49.46,108.01"/>
    <path class="cls-16" d="M289.58,556.11s-43.26-33.12-42.7-12.15c.56,20.97,42.7,12.15,42.7,12.15Z"/>
    <path class="cls-16" d="M337.09,544.09c-.56,20.97-42.7,12.15-42.7,12.15,0,0,43.26-33.12,42.7-12.15"/>
    <path class="cls-16" d="M269.05,599.77c-15.59-14.04,18.48-40.37,18.48-40.37,0,0-2.9,54.4-18.48,40.37"/>
    <path class="cls-16" d="M314.21,599.49c15.59-14.04-18.48-40.37-18.48-40.37,0,0,2.9,54.4,18.48,40.37"/>
    <path class="cls-16" d="M619.51,475.48s-115.74-88.63-114.26-32.52,114.26,32.52,114.26,32.52Z"/>
    <path class="cls-16" d="M746.63,443.32c-1.49,56.1-114.26,32.52-114.26,32.52,0,0,115.74-88.63,114.26-32.52"/>
    <path class="cls-16" d="M564.58,592.29c-41.7-37.56,49.46-108.01,49.46-108.01,0,0-7.75,145.57-49.46,108.01"/>
    <path class="cls-16" d="M685.43,591.55c41.7-37.56-49.46-108.01-49.46-108.01,0,0,7.75,145.57,49.46,108.01"/>
    <path class="cls-16" d="M628.32,805.17s-43.26-33.12-42.7-12.15,42.7,12.15,42.7,12.15Z"/>
    <path class="cls-16" d="M675.82,793.15c-.56,20.97-42.7,12.15-42.7,12.15,0,0,43.26-33.12,42.7-12.15"/>
    <path class="cls-16" d="M607.79,848.83c-15.59-14.04,18.48-40.37,18.48-40.37,0,0-2.9,54.4-18.48,40.37"/>
    <path class="cls-16" d="M652.95,848.55c15.59-14.04-18.48-40.37-18.48-40.37,0,0,2.9,54.4,18.48,40.37"/>
    <path class="cls-16" d="M995.53,798.71s-115.74-88.63-114.26-32.52c1.49,56.1,114.26,32.52,114.26,32.52Z"/>
    <path class="cls-16" d="M1122.65,766.56c-1.49,56.1-114.26,32.52-114.26,32.52,0,0,115.74-88.63,114.26-32.52"/>
    <path class="cls-16" d="M940.6,915.53c-41.7-37.56,49.46-108.01,49.46-108.01,0,0-7.75,145.57-49.46,108.01"/>
    <path class="cls-16" d="M1061.45,914.78c41.7-37.56-49.46-108.01-49.46-108.01,0,0,7.75,145.57,49.46,108.01"/>
    <path class="cls-16" d="M979.56,544.3s-43.26-33.12-42.7-12.15,42.7,12.15,42.7,12.15Z"/>
    <path class="cls-16" d="M1027.07,532.28c-.56,20.97-42.7,12.15-42.7,12.15,0,0,43.26-33.12,42.7-12.15"/>
    <path class="cls-16" d="M959.03,587.96c-15.59-14.04,18.48-40.37,18.48-40.37,0,0-2.9,54.4-18.48,40.37"/>
    <path class="cls-16" d="M1004.19,587.68c15.59-14.04-18.48-40.37-18.48-40.37,0,0,2.9,54.4,18.48,40.37"/>
    <path class="cls-16" d="M173.1,271.18s-115.74-88.63-114.26-32.52,114.26,32.52,114.26,32.52Z"/>
    <path class="cls-16" d="M300.22,239.03c-1.49,56.1-114.26,32.52-114.26,32.52,0,0,115.74-88.63,114.26-32.52"/>
    <path class="cls-16" d="M118.16,388c-41.7-37.56,49.46-108.01,49.46-108.01,0,0-7.75,145.57-49.46,108.01"/>
    <path class="cls-16" d="M239.01,387.25c41.7-37.56-49.46-108.01-49.46-108.01,0,0,7.75,145.57,49.46,108.01"/>
    <path class="cls-16" d="M288.9,9.87s-43.26-33.12-42.7-12.15c.56,20.97,42.7,12.15,42.7,12.15Z"/>
    <path class="cls-16" d="M336.41-2.14c-.56,20.97-42.7,12.15-42.7,12.15,0,0,43.26-33.12,42.7-12.15"/>
    <path class="cls-16" d="M268.37,53.53c-15.59-14.04,18.48-40.37,18.48-40.37,0,0-2.9,54.4-18.48,40.37"/>
    <path class="cls-16" d="M313.54,53.25c15.59-14.04-18.48-40.37-18.48-40.37,0,0,2.9,54.4,18.48,40.37"/>
    <path class="cls-16" d="M563.9,46.06c-41.7-37.56,49.46-108.01,49.46-108.01,0,0-7.75,145.57-49.46,108.01"/>
    <path class="cls-16" d="M684.75,45.31c41.7-37.56-49.46-108.01-49.46-108.01,0,0,7.75,145.57,49.46,108.01"/>
    <path class="cls-16" d="M632.64,249.93s-43.26-33.12-42.7-12.15,42.7,12.15,42.7,12.15Z"/>
    <path class="cls-16" d="M680.15,237.92c-.56,20.97-42.7,12.15-42.7,12.15,0,0,43.26-33.12,42.7-12.15"/>
    <path class="cls-16" d="M612.11,293.59c-15.59-14.04,18.48-40.37,18.48-40.37,0,0-2.9,54.4-18.48,40.37"/>
    <path class="cls-16" d="M657.28,293.31c15.59-14.04-18.48-40.37-18.48-40.37,0,0,2.9,54.4,18.48,40.37"/>
    <path class="cls-16" d="M992.86,178.48s-115.74-88.63-114.26-32.52c1.49,56.1,114.26,32.52,114.26,32.52Z"/>
    <path class="cls-16" d="M1119.98,146.32c-1.49,56.1-114.26,32.52-114.26,32.52,0,0,115.74-88.63,114.26-32.52"/>
    <path class="cls-16" d="M937.92,295.29c-41.7-37.56,49.46-108.01,49.46-108.01,0,0-7.75,145.57-49.46,108.01"/>
    <path class="cls-16" d="M1058.77,294.55c41.7-37.56-49.46-108.01-49.46-108.01,0,0,7.75,145.57,49.46,108.01"/>
    <path class="cls-16" d="M938.88.06s-43.26-33.12-42.7-12.15S938.88.06,938.88.06Z"/>
    <path class="cls-16" d="M986.39-11.95c-.56,20.97-42.7,12.15-42.7,12.15,0,0,43.26-33.12,42.7-12.15"/>
    <path class="cls-16" d="M918.35,43.72c-15.59-14.04,18.48-40.37,18.48-40.37,0,0-2.9,54.4-18.48,40.37"/>
    <path class="cls-16" d="M963.52,43.44c15.59-14.04-18.48-40.37-18.48-40.37,0,0,2.9,54.4,18.48,40.37"/>
    <path class="cls-16" d="M1307.28,458.51s-115.74-88.63-114.26-32.52,114.26,32.52,114.26,32.52Z"/>
    <path class="cls-16" d="M1434.4,426.35c-1.49,56.1-114.26,32.52-114.26,32.52,0,0,115.74-88.63,114.26-32.52"/>
    <path class="cls-16" d="M1252.35,575.32c-41.7-37.56,49.46-108.01,49.46-108.01,0,0-7.75,145.57-49.46,108.01"/>
    <path class="cls-16" d="M1373.2,574.58c41.7-37.56-49.46-108.01-49.46-108.01,0,0,7.75,145.57,49.46,108.01"/>
    <path class="cls-16" d="M1414.09,234.2s-43.26-33.12-42.7-12.15c.56,20.97,42.7,12.15,42.7,12.15Z"/>
    <path class="cls-16" d="M1461.6,222.18c-.56,20.97-42.7,12.15-42.7,12.15,0,0,43.26-33.12,42.7-12.15"/>
    <path class="cls-16" d="M1393.56,277.86c-15.59-14.04,18.48-40.37,18.48-40.37,0,0-2.9,54.4-18.48,40.37"/>
    <path class="cls-16" d="M1438.72,277.58c15.59-14.04-18.48-40.37-18.48-40.37,0,0,2.9,54.4,18.48,40.37"/>
    <path class="cls-16" d="M1761.02,153.57s-115.74-88.63-114.26-32.52c1.49,56.1,114.26,32.52,114.26,32.52Z"/>
    <path class="cls-16" d="M1888.14,121.41c-1.49,56.1-114.26,32.52-114.26,32.52,0,0,115.74-88.63,114.26-32.52"/>
    <path class="cls-16" d="M1706.09,270.38c-41.7-37.56,49.46-108.01,49.46-108.01,0,0-7.75,145.57-49.46,108.01"/>
    <path class="cls-16" d="M1826.94,269.64c41.7-37.56-49.46-108.01-49.46-108.01,0,0,7.75,145.57,49.46,108.01"/>
    <path class="cls-16" d="M1762.83,520.26s-43.26-33.12-42.7-12.15,42.7,12.15,42.7,12.15Z"/>
    <path class="cls-16" d="M1810.33,508.24c-.56,20.97-42.7,12.15-42.7,12.15,0,0,43.26-33.12,42.7-12.15"/>
    <path class="cls-16" d="M1742.3,563.92c-15.59-14.04,18.48-40.37,18.48-40.37,0,0-2.9,54.4-18.48,40.37"/>
    <path class="cls-16" d="M1787.46,563.64c15.59-14.04-18.48-40.37-18.48-40.37,0,0,2.9,54.4,18.48,40.37"/>
    <path class="cls-16" d="M1251.67,29.09c-41.7-37.56,49.46-108.01,49.46-108.01,0,0-7.75,145.57-49.46,108.01"/>
    <path class="cls-16" d="M1372.52,28.35c41.7-37.56-49.46-108.01-49.46-108.01,0,0,7.75,145.57,49.46,108.01"/>
    <path class="cls-16" d="M1727.37,798.57s-115.74-88.63-114.26-32.52c1.49,56.1,114.26,32.52,114.26,32.52Z"/>
    <path class="cls-16" d="M1854.49,766.41c-1.49,56.1-114.26,32.52-114.26,32.52,0,0,115.74-88.63,114.26-32.52"/>
    <path class="cls-16" d="M1672.43,915.38c-41.7-37.56,49.46-108.01,49.46-108.01,0,0-7.75,145.57-49.46,108.01"/>
    <path class="cls-16" d="M1793.28,914.64c41.7-37.56-49.46-108.01-49.46-108.01,0,0,7.75,145.57,49.46,108.01"/>
    <path class="cls-16" d="M1356.39,1047.16s-43.26-33.12-42.7-12.15,42.7,12.15,42.7,12.15Z"/>
    <path class="cls-16" d="M1403.9,1035.14c-.56,20.97-42.7,12.15-42.7,12.15,0,0,43.26-33.12,42.7-12.15"/>
    <path class="cls-16" d="M1335.86,1090.81c-15.59-14.04,18.48-40.37,18.48-40.37,0,0-2.9,54.4-18.48,40.37"/>
    <path class="cls-16" d="M1381.03,1090.54c15.59-14.04-18.48-40.37-18.48-40.37,0,0,2.9,54.4,18.48,40.37"/>
  </g>
  <g id="outterl">
    <g>
      <path class="cls-13" d="M1122.82,972.68s-637.3-184.22-869.46,15.78c-232.16,200,571.6-125.6,869.46-15.78Z"/>
      <path class="cls-8" d="M718.77,928.25s-391.37-1.67-440.68,78.91c-49.31,80.58,557.22-79.75,557.22-79.75l-116.53.84Z"/>
      <path class="cls-8" d="M667.99,914.49s-112.67-18.74-81.6-5.93c31.07,12.81,81.6,5.93,81.6,5.93Z"/>
      <path class="cls-8" d="M595.59,919.93s-94.15-22.32-84.19-9.72,84.19,9.72,84.19,9.72Z"/>
      <path class="cls-8" d="M306.23,970.13s-97.17,39.64-47.87,37.03"/>
      <path class="cls-8" d="M514.26,923.07s-95.19-22.21-188.57,37.55"/>
    </g>
  
      <animateTransform
      attributeName="transform"
      atributeType="XML"
      type="translate"
      dur="10s"
      values="6,4;-6,-4;6,4;"
      repeatCount="indefinite"/>
  
  </g>
  <g id="flowerl">
    <g>
      <path class="cls-4" d="M1323.67,935.33s-82.93-112.24-448.36,0c-365.43,112.24-245.68,169.76-110.5,166.82,135.18-2.95,441.83-223.13,558.86-166.82Z"/>
      <path class="cls-3" d="M1118,915.63s-252.84,49.9-291.36,103.12c-38.51,53.21,86.26,40.31,291.36-103.12Z"/>
      <path class="cls-3" d="M837.16,958.65s-205.5,68.88-171.01,104.72c34.49,35.84,171.01-104.72,171.01-104.72Z"/>
    </g>
    <g>
      <path class="cls-11" d="M764.94,986.74s53.99,36.95,64.87,35.42c10.88-1.53,49.08-63.7,41.76-71.99-7.32-8.29-106.62,36.58-106.62,36.58Z"/>
      <path class="cls-15" d="M822.84,990.64s-24.89-64.14-102.48-26.64c-77.59,37.5,102.48,26.64,102.48,26.64Z"/>
      <path class="cls-15" d="M891.05,909.84c78.31-7.13-72.46,74.56-72.46,74.56,0,0-12.55-60.49,72.46-74.56"/>
      <path class="cls-15" d="M822.41,989.26s-85.81-41.03-59.97-57.57c25.85-16.54,80.54-39.67,73.51,4.88-7.03,44.55-13.55,52.69-13.55,52.69Z"/>
      <path class="cls-2" d="M818.41,985.78s-17.02-43.85-70.06-18.22c-53.04,25.64,70.06,18.22,70.06,18.22Z"/>
      <path class="cls-15" d="M818.56,981.04s-105.72-9.91-72.96,52.96c32.76,62.86,76.24-45.93,76.24-45.93l5.77-9.9s63.86-60.47,84.69-11.53c17.56,41.26-50.36,66.62-93.74,14.4Z"/>
      <path class="cls-9" d="M846.64,958.07s4.33,11.71-19.06,21.21c-25.53,10.37,61.29,45.02,83.64,17.45,17.63-21.74-6.73-71.42-64.59-38.66Z"/>
      <path class="cls-12" d="M826.18,948.44s21.24-37.2,79.64-40.01c0,0,27.88,6.01-9.59,37.32,0,0-19.16,12.71-46.69,10.73-27.53-1.97-23.35-8.04-23.35-8.04Z"/>
      <path class="cls-2" d="M865.04,930.55c58.12-9.62-46.76,55.27-46.76,55.27,0,0-11.37-45.64,46.76-55.27"/>
      <path class="cls-9" d="M826.17,982s-39.59,89.77-69.07,68.44c0,0-14.56-14.84-14.34-24.38.22-9.54,47.18,24.54,69.21-51.2l11.36-6.48,2.83,13.61Z"/>
      <path class="cls-2" d="M814.63,977.6s-77.37-14.7-55.54,27.2c21.83,41.9,57.72-22.51,57.72-22.51l3.85-6.6s41.62-52.78,55.51-20.16c11.71,27.5-32.63,56.87-61.54,22.07Z"/>
      <path class="cls-2" d="M820.91,977.64c-1.49,2.22-4.41,2.96-6.8,1.74-12.48-6.35-51.73-27.03-37.4-37.57,18.7-13.76,53-29.95,50.26,3.34-1.63,19.82-3.05,28.01-6.06,32.49Z"/>
      <path class="cls-6" d="M806.8,965.73s-25.12-4.67-38.15,12.08c-13.03,16.75,38.15-12.08,38.15-12.08Z"/>
      <path class="cls-6" d="M807.59,966.96s-27.89-6.57-21.49-12.79c6.41-6.22,45.27-15.76,40.07-5.73-5.2,10.03-18.59,18.52-18.59,18.52Z"/>
      <path class="cls-7" d="M807.45,965.22s1.6-4.79-10.69-4.22c-11.21.52,7.19-5.25,10.69,4.22Z"/>
      <path class="cls-7" d="M808.05,965.03s-2.56-11.95,5.01-11.02c7.57.93-6.76.23-5.01,11.02Z"/>
      <path class="cls-7" d="M807.77,965.12s4.14-9.75,8.81-7.78c4.67,1.96-5.61-.78-8.81,7.78Z"/>
      <path class="cls-7" d="M808.16,965.39s-6.54-5.44-12.14.64c-5.6,6.07,3.76-3.62,12.14-.64Z"/>
      <path class="cls-6" d="M850.81,951.87c20.3,6.18-38.14,12.12-38.14,12.12,0,0,17.84-18.3,38.14-12.12"/>
      <path class="cls-6" d="M806.78,965.83s-20.09,14.12-13.08,18.04c7.01,3.93,10.61-14.58,21.37-12.34,10.76,2.23,21.19.72,20.16-3.26s-20.58-6.78-28.45-2.44Z"/>
      <path class="cls-12" d="M802.71,998.79c-.4.28-.79.55-1.21.8-.14.08-.28.15-.43.21-3.59,1.51-7.18,3.03-10.76,4.54-.18.05-.35.14-.53.19-1.34.36-10.77,1.65-12.23,1.66-.15,0-.3.02-.46.01-1.09,0-11.2-1.38-12.18-1.65-.59-.16-4.3-1.69-7.26-2.96.41.95.87,1.91,1.39,2.93,15.47,29.68,37.98,6.02,49.8-10.31-2.02,1.59-4.08,3.14-6.13,4.58Z"/>
      <path class="cls-12" d="M869.35,968.49c-2,3.39-4.7,6.08-8.08,8.08-4.35,3.98-9.46,6.67-15.32,8.06-3.99.54-7.98,1.07-11.98,1.61-3.89-.3-7.9-.43-11.67-1.38,27.98,21.93,63.5-3.73,54.21-28.56-1.53,4.57-3.9,8.64-7.16,12.19Z"/>
    </g>

    <animateTransform
      attributeName="transform"
      atributeType="XML"
      type="translate"
      dur="5s"
      values="0,-4;0,4;0,-4;"
      repeatCount="indefinite"/>

  </g>
  <g id="body">
    <path class="cls-4" d="M1724.95,988.77s14.07-438.87-55.67-420.92c-75.2,19.36,85.52-62.42,35.74,420.92h19.94Z"/>
    <path class="cls-4" d="M1674.44,558.6s-209-195.63-370.71,1.49c-161.71,197.12,21.51,86.75,21.51,86.75,0,0-54.33,35.3-52.62,68.38,1.71,33.08,461.73-113.31,401.82-156.62Z"/>
    <path class="cls-8" d="M1809.9,382.93c-11.48-7.3-22.43-15.33-32.98-23.94-2.2-1.8-4.28-3.67-6.3-5.57-1.86-.05-3.28.12-4.14.57-2.89,1.91-5.63,4.32-8.22,7.21-62.28,69.21-42.38,407.44-42.38,407.44,28.87-27.98,7.52-253.43,22.98-319.44.81-3.47,1.65-6.84,2.5-10.11,2.5-17.72,10.74-29.04,22.22-35.91,3.83-2.29,8.02-4.09,12.48-5.46,14.86-4.71,30.89-4.3,44.82-3.01,3.42.32,6.81.75,10.19,1.22-7.08-4.3-14.19-8.55-21.17-12.99Z"/>
    <path class="cls-4" d="M1525.5,935.71s272.5-12.91,228.04,113.3c-44.46,126.21-67.41,2.87-228.04-113.3Z"/>
    <g>
      <path class="cls-1" d="M1607.94,959.22c-10.34-6.83-21.88-11.6-33.85-14.83-46.97-12.7-138.28-31.93-172.5-.96-46.94,42.48-80.14-56.28-161.79-44.91-81.64,11.37-112.79,70.84-154.79,71.61-41.99.78,216.91,72.99,250.44,27.89,33.53-45.1,119.59,63.9,165.48,65.34,45.9,1.43,164.94-84.62,176.41-84.62,9.86,0-51.1-7.41-69.41-19.51Z"/>
      <path class="cls-3" d="M1366.13,963.63s60.09,61.12,153.38,30.22c93.29-30.9,125.42-22.14,131.59-20.78,6.17,1.36-224.72-112.03-284.97-9.44Z"/>
      <path class="cls-3" d="M1333.75,927.46c-2.05-1.79-133.49,45.42-115.1,60.54s82.38,24.36,113.05-10.7c30.67-35.06,38.54-41.96,38.54-41.96l-36.49-7.88Z"/>
    </g>
    <g>
      <path class="cls-11" d="M1264.69,857.74s79.94,102.27,101.44,105.9,131.03-91.03,122.16-111.11c-8.87-20.08-223.6,5.22-223.6,5.22Z"/>
      <path class="cls-15" d="M1371.86,899.85s-8.61-136.25-177.84-111.87c-169.24,24.38,177.84,111.87,177.84,111.87Z"/>
      <path class="cls-15" d="M1549.34,787.96c169.24,24.38-181.78,97.55-181.78,97.55,0,0,12.54-121.93,181.78-97.55"/>
      <path class="cls-15" d="M1371.86,896.98s-137.69-129.08-78.88-144.86c58.8-15.78,176.13-26.72,136.11,53.33-40.02,80.05-57.23,91.53-57.23,91.53Z"/>
      <path class="cls-2" d="M1366.38,888s-5.88-93.15-121.58-76.48c-115.7,16.67,121.58,76.48,121.58,76.48Z"/>
      <path class="cls-15" d="M1369.51,879.13s-186.44-95.46-185.01,47.97c1.41,140.65,186.99-32.7,186.99-32.7l16.86-15.26s157.05-76.06,167.09,28.99c8.46,88.57-135.2,95.79-185.93-28.99Z"/>
      <path class="cls-9" d="M1436.4,852.52s1.18,24.74-48.76,28.68c-54.5,4.3,88.92,121.91,147.73,83.19,46.38-30.55,30.12-139.12-98.96-111.87Z"/>
      <path class="cls-9" d="M1403.48,822.04s62.49-57.61,174.63-27.91c0,0,53.39,15.03-36.27,51.77,0,0-48.13,25.6-99.01,5.35s-39.35-29.22-39.35-29.22Z"/>
      <path class="cls-10" d="M1487.72,811.51c115.7,16.67-121.58,76.48-121.58,76.48,0,0,5.88-93.15,121.58-76.48"/>
      <path class="cls-9" d="M1383.33,885.51s-147.27,136.89-190.22,78.88c0,0-10.45-29.41-4.3-47.33,6.14-17.92,84.85,76.46,171.96-53.56l25.37-5.44-2.8,27.45Z"/>
      <path class="cls-10" d="M1364.14,870.26s-137.52-74.23-121.36,18.12c16.16,92.34,122.68-7.94,122.68-7.94l11.23-10.17s110.39-74.85,117.08-4.83c5.64,59.03-95.82,88-129.63,4.83Z"/>
      <path class="cls-14" d="M1381.83,863.66s-3.74-49.54,57.43-54.16c0,0,31.12-3.01,43.53,1.36s-44.96,34.49-100.96,52.8Z"/>
      <path class="cls-2" d="M1376,874.11c-4.15,3.31-10.12,2.94-13.9-.78-19.79-19.5-81.63-82.15-48.21-93.5,43.62-14.8,118.2-24.84,93.05,36.46-14.98,36.5-22.57,51.14-30.95,57.82Z"/>
      <path class="cls-2" d="M1367.82,878.87s-116.9,41.62-125.99,2.61c-9.09-39,24.97-41.81,41.11-40.44,16.14,1.38,79.41,16.3,83.45,23.93,4.04,7.63,1.43,13.9,1.43,13.9Z"/>
      <path class="cls-6" d="M1356.46,843.12s-44.72-23.9-79.4-.04c-34.69,23.86,79.4.04,79.4.04Z"/>
      <path class="cls-6" d="M1357.21,845.91s-48.82-29.16-32.97-37.08c15.85-7.92,95.08-2.64,79.23,13.21-15.85,15.85-46.26,23.87-46.26,23.87Z"/>
      <path class="cls-7" d="M1358,842.54s5.9-8.11-17.69-14.4c-21.51-5.74,16.74-5.62,17.69,14.4Z"/>
      <path class="cls-7" d="M1359.24,842.54s2.32-24.13,16.08-17.83c13.76,6.3-12.92-3.63-16.08,17.83Z"/>
      <path class="cls-7" d="M1358.65,842.54s13.67-15.95,21.32-9.44c7.66,6.51-10.15-4.85-21.32,9.44Z"/>
      <path class="cls-7" d="M1359.24,843.29s-9.11-14.21-23.34-6.08c-14.23,8.13,9.29-4.59,23.34,6.08Z"/>
      <path class="cls-14" d="M1460.04,842.11c1.79,4.51,3.79,9.23,4.65,14.14.82,4.97.54,10.08-2.17,15.27-1.6,3.59-4.06,6.93-7.7,9.83-3.04,2.46-6.87,4.46-11.69,5.79-14.44,3.99-37.66,1.92-74.54-12.14,0,0,16.1-9.82,35.91-19.66,4.95-2.46,10.14-4.92,15.36-7.23,4.68-2.81,9.52-4.22,14.48-5.37,4.9-.94,9.8-1.41,14.54-2.39,4.06.25,7.81.86,11.16,1.76Z"/>
      <path class="cls-14" d="M1373.29,872.6s-117.37,52.12-131.83,2.4c0,0-2.38,64.1,48.23,51.65,0,0,63.13-18.66,83.6-54.05Z"/>
      <path class="cls-5" d="M1448,843.3c34.69,23.86-79.4.04-79.4.04,0,0,44.72-23.9,79.4-.04"/>
      <path class="cls-5" d="M1356.37,843.29s-46.46,14.65-35.56,26.28c10.9,11.63,28.81-21.2,47.82-10.52,19.01,10.68,39.66,14.07,40.09,5.92.43-8.15-34.85-25.17-52.35-21.68Z"/>
    </g>
    <g>
      <path class="cls-8" d="M2.11,543.91c11.48,7.3,22.43,15.33,32.98,23.94,2.2,1.8,4.28,3.67,6.3,5.57,1.86.05,3.28-.12,4.14-.57,2.89-1.91,5.63-4.32,8.22-7.21,62.28-69.21,42.38-407.44,42.38-407.44-28.87,27.98-7.52,253.43-22.98,319.44-.81,3.47-1.65,6.84-2.5,10.11-2.5,17.72-10.74,29.04-22.22,35.91-3.83,2.29-8.02,4.09-12.48,5.46-14.86,4.71-30.89,4.3-44.82,3.01-3.42-.32-6.81-.75-10.19-1.22,7.08,4.3,14.19,8.55,21.17,12.99Z"/>
      <path class="cls-13" d="M-109.95,554.43c-7.12-3.02-21.52-9.1-37.75-15.81-32.9-15.07-50.46-21.5-59.75-23.88-.97-.25-1.91-.54-2.85-.87-9.74-3.43-14.96-4.71-11.73-2.07,1.39,1.13,2.88,2.28,4.44,3.44.08.39.28.7.28.7.74.43,1.48.85,2.21,1.27.82.47,1.6.96,2.38,1.5,22.89,15.63,58.36,32.21,81.87,42.5,128.79,59.38,168.28,34.2,179.57,5.9,7.43-18.61-2.62-39.62-21.56-46.17-90.98-31.44-237.02-54.77-236.52-38.97.43,13.52,104.51,71.2,99.41,72.49Z"/>
      <path class="cls-8" d="M-140.73,493.63S-3.32,596.01,32.62,560.18c35.94-35.82-176.43-72.18-173.35-66.56Z"/>
    </g>
    <path class="cls-1" d="M1615.73,541.96s-134.88-98.11-242.67-1.53,197.66-45.95,242.67,1.53Z"/>
    <path class="cls-1" d="M1324.37,588.39c-8.47,2.09-16.38,3.86-24.11,9.87-2.66,1.85-5.23,3.86-7.65,6.05-4.83,4.38-9.05,9.52-12.16,15.87-2.36,3.07-4.53,6.04-6.42,8.85-9.46,14.01-11.86,23.7,4.67,18.84,3.3-.97,6.4-2.17,9.3-3.54,2.34-1.41,4.53-3.02,6.61-4.81,4.63-3.83,8.7-8.25,12.37-13.08,1.83-2.42,3.57-4.94,5.22-7.55,4.55-6.23,8.98-14.58,12.81-22.26.37-2.88.07-5.85-.64-8.22Z"/>
    <path class="cls-3" d="M1578.09,564.68s-157.33,75.79-116.65,83.94c40.68,8.16,116.65-83.94,116.65-83.94Z"/>
    <path class="cls-3" d="M1620.87,562.67s-79.77,49.82-51.8,51.66,51.8-51.66,51.8-51.66Z"/>
    <path class="cls-4" d="M1651.22,960.73s-47.02-221.51,170.98-268.84c218-47.33,177.23,19.92-170.98,268.84Z"/>
    <path class="cls-4" d="M1629.58,967.86c-7.91-.1,247.91-179.65,342.17-15.55,94.27,164.1-184.84,17.58-342.17,15.55Z"/>
    <path class="cls-4" d="M1646.95,952.32s284.25,173.31,117.88,192.45c-166.37,19.14-187-121.58-117.88-192.45Z"/>
    <path class="cls-3" d="M1657.27,941.44c0-7.17-3.38-209.02,123.09-221.4,126.47-12.38-123.09,221.4-123.09,221.4Z"/>
    <path class="cls-1" d="M1654.73,952.32s127.32-75.41,214.81-18.04c87.49,57.37-214.81,18.04-214.81,18.04Z"/>
    <path class="cls-13" d="M1651.22,964.44s144.81,79.36,85.47,107.06c-59.34,27.71-117.33,39.27-85.47-107.06Z"/>
    <path class="cls-13" d="M1921.97,372.41c7.12,3.02,21.52,9.1,37.75,15.81,32.9,15.07,50.46,21.5,59.75,23.88.97.25,1.91.54,2.85.87,9.74,3.43,14.96,4.71,11.73,2.07-1.39-1.13-2.88-2.28-4.44-3.44-.08-.39-.28-.7-.28-.7-.74-.43-1.48-.85-2.21-1.27-.82-.47-1.6-.96-2.38-1.5-22.89-15.63-58.36-32.21-81.87-42.5-128.79-59.38-168.28-34.2-179.57-5.9-7.43,18.61,2.62,39.62,21.56,46.17,90.98,31.44,237.02,54.77,236.52,38.97-.43-13.52-104.51-71.2-99.41-72.49Z"/>
    <path class="cls-8" d="M1952.74,433.21s-137.4-102.38-173.35-66.56c-35.94,35.82,176.43,72.18,173.35,66.56Z"/>
    <path class="cls-8" d="M1968.83,440.96c-2.87-.26,93.62,16.13-20.41-40.22-124.78-61.67,69.5,44.59,20.41,40.22Z"/>
    <path class="cls-3" d="M1479.15,576.75s-204.5,102.37-150.64,115.45c53.87,13.07,150.64-115.45,150.64-115.45Z"/>
    <path class="cls-13" d="M655.19,111.72s637.3,184.22,869.46-15.78c232.16-200-571.6,125.6-869.46,15.78Z"/>
    <path class="cls-4" d="M367.92,74.91s-219.7,168.24-236.97,66.24c-17.28-102,54.49-41.42,236.97-66.24Z"/>
    <path class="cls-4" d="M454.35,149.07s82.93,112.24,448.36,0c365.43-112.24,245.68-169.76,110.5-166.82-135.18,2.95-441.83,223.13-558.86,166.82Z"/>
    <path class="cls-1" d="M170.08,125.19c10.34,6.83,21.88,11.6,33.85,14.83,46.97,12.7,146.24,75.52,192.07,80.98,42,5,60.58-23.74,142.22-35.11,81.64-11.37,112.79-70.84,154.79-71.61,41.99-.78-216.91-72.99-250.44-27.89-33.53,45.1-119.59-63.9-165.48-65.34-45.9-1.43-164.94,84.62-176.41,84.62-9.86,0,51.1,7.41,69.41,19.51Z"/>
    <path class="cls-3" d="M411.88,120.77s-60.09-61.12-153.38-30.22c-93.29,30.9-125.42,22.14-131.59,20.78s224.72,112.03,284.97,9.44Z"/>
    <path class="cls-3" d="M444.27,156.95c2.05,1.79,133.49-45.42,115.1-60.54-18.39-15.12-82.38-24.36-113.05,10.7-30.67,35.06-51.32,91.89-51.32,91.89l49.27-42.05Z"/>
    <path class="cls-3" d="M660.02,168.78s252.84-49.9,291.36-103.12c38.51-53.21-86.26-40.31-291.36,103.12Z"/>
    <path class="cls-3" d="M940.85,125.75s205.5-68.88,171.01-104.72c-34.49-35.84-171.01,104.72-171.01,104.72Z"/>
    <path class="cls-8" d="M1059.24,156.16s391.37,1.67,440.68-78.91c49.31-80.58-557.22,79.75-557.22,79.75l116.53-.84Z"/>
    <g>
      <path class="cls-11" d="M1013.07,97.67s-53.99-36.95-64.87-35.42c-10.88,1.53-49.08,63.7-41.76,71.99,7.32,8.29,106.62-36.58,106.62-36.58Z"/>
      <path class="cls-15" d="M955.17,93.77s24.89,64.14,102.48,26.64c77.59-37.5-102.48-26.64-102.48-26.64Z"/>
      <path class="cls-15" d="M886.96,174.56c-78.31,7.13,72.46-74.56,72.46-74.56,0,0,12.55,60.49-72.46,74.56"/>
      <path class="cls-15" d="M955.61,95.14s85.81,41.03,59.97,57.57c-25.85,16.54-80.54,39.67-73.51-4.88,7.03-44.55,13.55-52.69,13.55-52.69Z"/>
      <path class="cls-2" d="M959.61,98.62s17.02,43.85,70.06,18.22c53.04-25.64-70.06-18.22-70.06-18.22Z"/>
      <path class="cls-15" d="M959.46,103.36s105.72,9.91,72.96-52.96c-32.76-62.86-76.24,45.93-76.24,45.93l-5.77,9.9s-63.86,60.47-84.69,11.53c-17.56-41.26,50.36-66.62,93.74-14.4Z"/>
      <path class="cls-9" d="M931.38,126.34s-4.33-11.71,19.06-21.21c25.53-10.37-61.29-45.02-83.64-17.45-17.63,21.74,6.73,71.42,64.59,38.66Z"/>
      <path class="cls-12" d="M951.84,135.97s-21.24,37.2-79.64,40.01c0,0-27.88-6.01,9.59-37.32,0,0,19.16-12.71,46.69-10.73,27.53,1.97,23.35,8.04,23.35,8.04Z"/>
      <path class="cls-2" d="M912.98,153.86c-58.12,9.62,46.76-55.27,46.76-55.27,0,0,11.37,45.64-46.76,55.27"/>
      <path class="cls-9" d="M951.85,102.41s39.59-89.77,69.07-68.44c0,0,14.56,14.84,14.34,24.38-.22,9.54-47.18-24.54-69.21,51.2l-11.36,6.48-2.83-13.61Z"/>
      <path class="cls-2" d="M963.39,106.81s77.37,14.7,55.54-27.2c-21.83-41.9-57.72,22.51-57.72,22.51l-3.85,6.6s-41.62,52.78-55.51,20.16c-11.71-27.5,32.63-56.87,61.54-22.07Z"/>
      <path class="cls-2" d="M957.11,106.76c1.49-2.22,4.41-2.96,6.8-1.74,12.48,6.35,51.73,27.03,37.4,37.57-18.7,13.76-53,29.95-50.26-3.34,1.63-19.82,3.05-28.01,6.06-32.49Z"/>
      <path class="cls-6" d="M971.21,118.68s25.12,4.67,38.15-12.08c13.03-16.75-38.15,12.08-38.15,12.08Z"/>
      <path class="cls-6" d="M970.43,117.45s27.89,6.57,21.49,12.79c-6.41,6.22-45.27,15.76-40.07,5.73s18.59-18.52,18.59-18.52Z"/>
      <path class="cls-7" d="M970.56,119.19s-1.6,4.79,10.69,4.22c11.21-.52-7.19,5.25-10.69-4.22Z"/>
      <path class="cls-7" d="M969.97,119.38s2.56,11.95-5.01,11.02c-7.57-.93,6.76-.23,5.01-11.02Z"/>
      <path class="cls-7" d="M970.25,119.29s-4.14,9.75-8.81,7.78,5.61.78,8.81-7.78Z"/>
      <path class="cls-7" d="M969.85,119.01s6.54,5.44,12.14-.64c5.6-6.07-3.76,3.62-12.14.64Z"/>
      <path class="cls-6" d="M927.21,132.54c-20.3-6.18,38.14-12.12,38.14-12.12,0,0-17.84,18.3-38.14,12.12"/>
      <path class="cls-6" d="M971.23,118.58s20.09-14.12,13.08-18.04c-7.01-3.93-10.61,14.58-21.37,12.34-10.76-2.23-21.19-.72-20.16,3.26s20.58,6.78,28.45,2.44Z"/>
      <path class="cls-12" d="M975.3,85.62c.4-.28.79-.55,1.21-.8.14-.08.28-.15.43-.21,3.59-1.51,7.18-3.03,10.76-4.54.18-.05.35-.14.53-.19,1.34-.36,10.77-1.65,12.23-1.66.15,0,.3-.02.46-.01,1.09,0,11.2,1.38,12.18,1.65.59.16,4.3,1.69,7.26,2.96-.41-.95-.87-1.91-1.39-2.93-15.47-29.68-37.98-6.02-49.8,10.31,2.02-1.59,4.08-3.14,6.13-4.58Z"/>
      <path class="cls-12" d="M908.67,115.92c2-3.39,4.7-6.08,8.08-8.08,4.35-3.98,9.46-6.67,15.32-8.06,3.99-.54,7.98-1.07,11.98-1.61,3.89.3,7.9.43,11.67,1.38-27.98-21.93-63.5,3.73-54.21,28.56,1.53-4.57,3.9-8.64,7.16-12.19Z"/>
    </g>
    <path class="cls-8" d="M1110.03,169.91s112.67,18.74,81.6,5.93c-31.07-12.81-81.6-5.93-81.6-5.93Z"/>
    <path class="cls-8" d="M1182.42,164.48s94.15,22.32,84.19,9.72c-9.96-12.59-84.19-9.72-84.19-9.72Z"/>
    <path class="cls-8" d="M1471.79,114.28s97.17-39.64,47.87-37.03"/>
    <path class="cls-8" d="M1263.76,161.33s95.19,22.21,188.57-37.55"/>
    <path class="cls-4" d="M196.49,129.45S-87.76-43.86,78.61-63c166.37-19.14,187,121.58,117.88,192.45Z"/>
    <path class="cls-13" d="M192.22,117.33S47.41,37.97,106.75,10.27c59.34-27.71,117.33-39.27,85.47,107.06Z"/>
  </g>
  <g id="flower">
    <g>
      <path class="cls-11" d="M513.32,226.67s-79.94-102.27-101.44-105.9c-21.5-3.63-131.03,91.03-122.16,111.11,8.87,20.08,223.6-5.22,223.6-5.22Z"/>
      <path class="cls-15" d="M406.16,184.56s8.61,136.25,177.84,111.87c169.24-24.38-177.84-111.87-177.84-111.87Z"/>
      <path class="cls-15" d="M228.68,296.45c-169.24-24.38,181.78-97.55,181.78-97.55,0,0-12.54,121.93-181.78,97.55"/>
      <path class="cls-15" d="M406.16,187.42s137.69,129.08,78.88,144.86c-58.8,15.78-176.13,26.72-136.11-53.33,40.02-80.05,57.23-91.53,57.23-91.53Z"/>
      <path class="cls-2" d="M411.63,196.4s5.88,93.15,121.58,76.48c115.7-16.67-121.58-76.48-121.58-76.48Z"/>
      <path class="cls-15" d="M408.5,205.27s186.44,95.46,185.01-47.97c-1.41-140.65-186.99,32.7-186.99,32.7l-16.86,15.26s-157.05,76.06-167.09-28.99c-8.46-88.57,135.2-95.79,185.93,28.99Z"/>
      <path class="cls-9" d="M341.62,231.88s-1.18-24.74,48.76-28.68c54.5-4.3-88.92-121.91-147.73-83.19-46.38,30.55-30.12,139.12,98.96,111.87Z"/>
      <path class="cls-9" d="M374.54,262.37s-62.49,57.61-174.63,27.91c0,0-53.39-15.03,36.27-51.77,0,0,48.13-25.6,99.01-5.35s39.35,29.22,39.35,29.22Z"/>
      <path class="cls-10" d="M290.3,272.9c-115.7-16.67,121.58-76.48,121.58-76.48,0,0-5.88,93.15-121.58,76.48"/>
      <path class="cls-9" d="M394.68,198.9s147.27-136.89,190.22-78.88c0,0,10.45,29.41,4.3,47.33-6.14,17.92-84.85-76.46-171.96,53.56l-25.37,5.44,2.8-27.45Z"/>
      <path class="cls-10" d="M413.88,214.15s137.52,74.23,121.36-18.12c-16.16-92.34-122.68,7.94-122.68,7.94l-11.23,10.17s-110.39,74.85-117.08,4.83c-5.64-59.03,95.82-88,129.63-4.83Z"/>
      <path class="cls-14" d="M396.18,220.75s3.74,49.54-57.43,54.16c0,0-31.12,3.01-43.53-1.36s44.96-34.49,100.96-52.8Z"/>
      <path class="cls-2" d="M402.02,210.29c4.15-3.31,10.12-2.94,13.9.78,19.79,19.5,81.63,82.15,48.21,93.5-43.62,14.8-118.2,24.84-93.05-36.46,14.98-36.5,22.57-51.14,30.95-57.82Z"/>
      <path class="cls-2" d="M410.2,205.54s116.9-41.62,125.99-2.61c9.09,39-24.97,41.81-41.11,40.44-16.14-1.38-79.41-16.3-83.45-23.93s-1.43-13.9-1.43-13.9Z"/>
      <path class="cls-6" d="M421.55,241.29s44.72,23.9,79.4.04c34.69-23.86-79.4-.04-79.4-.04Z"/>
      <path class="cls-6" d="M420.8,238.49s48.82,29.16,32.97,37.08c-15.85,7.92-95.08,2.64-79.23-13.21,15.85-15.85,46.26-23.87,46.26-23.87Z"/>
      <path class="cls-7" d="M420.02,241.87s-5.9,8.11,17.69,14.4c21.51,5.74-16.74,5.62-17.69-14.4Z"/>
      <path class="cls-7" d="M418.78,241.87s-2.32,24.13-16.08,17.83,12.92,3.63,16.08-17.83Z"/>
      <path class="cls-7" d="M419.36,241.87s-13.67,15.95-21.32,9.44c-7.66-6.51,10.15,4.85,21.32-9.44Z"/>
      <path class="cls-7" d="M418.78,241.11s9.11,14.21,23.34,6.08c14.23-8.13-9.29,4.59-23.34-6.08Z"/>
      <path class="cls-14" d="M317.97,242.3c-1.79-4.51-3.79-9.23-4.65-14.14-.82-4.97-.54-10.08,2.17-15.27,1.6-3.59,4.06-6.93,7.7-9.83,3.04-2.46,6.87-4.46,11.69-5.79,14.44-3.99,37.66-1.92,74.54,12.14,0,0-16.1,9.82-35.91,19.66-4.95,2.46-10.14,4.92-15.36,7.23-4.68,2.81-9.52,4.22-14.48,5.37-4.9.94-9.8,1.41-14.54,2.39-4.06-.25-7.81-.86-11.16-1.76Z"/>
      <path class="cls-14" d="M404.72,211.81s117.37-52.12,131.83-2.4c0,0,2.38-64.1-48.23-51.65,0,0-63.13,18.66-83.6,54.05Z"/>
      <path class="cls-5" d="M330.01,241.11c-34.69-23.86,79.4-.04,79.4-.04,0,0-44.72,23.9-79.4.04"/>
      <path class="cls-5" d="M421.65,241.11s46.46-14.65,35.56-26.28c-10.9-11.63-28.81,21.2-47.82,10.52s-39.66-14.07-40.09-5.92,34.85,25.17,52.35,21.68Z"/>
    </g>
  
    <animateTransform
      attributeName="transform"
      atributeType="XML"
      type="translate"
      dur="5s"
      values="0,-4;0,4;0,-4;"
      repeatCount="indefinite"/>
  
  </g>
  <g id="leaftop">
    <g>
      <path class="cls-4" d="M192.22,121.04s47.02,221.51-170.98,268.84c-218,47.33-177.23-19.92,170.98-268.84Z"/>
      <path class="cls-4" d="M213.86,113.9c7.91.1-247.91,179.65-342.17,15.55-94.27-164.1,184.84-17.58,342.17-15.55Z"/>
      <path class="cls-3" d="M186.17,140.32c0,7.17,3.38,209.02-123.09,221.4-126.47,12.38,123.09-221.4,123.09-221.4Z"/>
      <path class="cls-1" d="M188.71,129.45s-127.32,75.41-214.81,18.04c-87.49-57.37,214.81-18.04,214.81-18.04Z"/>
    </g>
  
      <animateTransform
      attributeName="transform"
      atributeType="XML"
      type="translate"
      dur="5s"
      values="6,2;-6,-2;6,2;"
      repeatCount="indefinite"/>

  </g>
</svg>